<svg width="630" height="630" viewBox="0 0 630 630" xmlns="http://www.w3.org/2000/svg"><defs><linearGradient x1="50%" y1="0%" x2="50%" y2="100%" id="a"><stop stop-color="#EBBB14" offset="0"/><stop stop-color="#B25400" offset="1"/></linearGradient><linearGradient x1="50%" y1="0%" x2="50%" y2="100%" id="b"><stop stop-color="#F9E583" offset="0"/><stop stop-color="#DE9800" offset="1"/></linearGradient><linearGradient x1="50%" y1="0%" x2="50%" y2="100%" id="c"><stop stop-color="#F9E68B" offset="0"/><stop stop-color="#F3CD32" offset="1"/></linearGradient></defs><g transform="translate(77.5)" fill-rule="evenodd"><rect fill="url(#a)" x="256" width="219" height="630" rx="26"/><path d="M346 604v26H153c-14.36 0-26-11.64-26-26V183c0-14.36 11.64-26 26-26h167c14.36 0 26 11.64 26 26z" fill="url(#b)"/><path d="M219 604v26H26c-14.36 0-26-11.64-26-26V341c0-14.36 11.64-26 26-26h167c14.36 0 26 11.64 26 26z" fill="url(#c)"/></g></svg>
