<svg xmlns="http://www.w3.org/2000/svg" width="64" height="64" viewBox="0 0 64 64" role="img" aria-labelledby="title">
  <title id="title">Canva</title>
  <defs><linearGradient id="g" x1="8" y1="56" x2="56" y2="8" gradientUnits="userSpaceOnUse"><stop stop-color="#00C4CC"/><stop offset="1" stop-color="#7D2AE8"/></linearGradient></defs>
  <rect width="64" height="64" rx="14" fill="url(#g)"/>
  <path d="M43.5 23.5c-2.7-4.4-8.1-6.7-13.3-5.2-7.1 2-11.4 10.2-8.3 17 2.7 6 10.5 8.6 16.2 5.2 2.2-1.3 4-3.2 5.2-5.5l-6-2.3c-.8 1.4-2 2.5-3.6 3-3.2 1-6.6-.9-7.4-4.2-.9-3.4 1.3-6.9 4.8-7.5 2.7-.5 5.2.8 6.5 3l5.9-3.5Z" fill="white"/>
</svg>
